<?xml version="1.0" encoding="UTF-8" standalone="no"?>
<svg width="500px" height="500px" viewBox="0 0 500 500" version="1.1" xmlns="http://www.w3.org/2000/svg" xmlns:xlink="http://www.w3.org/1999/xlink">
    <!-- Generator: Sketch 3.8.2 (29753) - http://www.bohemiancoding.com/sketch -->
    <title>logo</title>
    <desc>Created with Sketch.</desc>
    <defs></defs>
    <g id="Page-1" stroke="none" stroke-width="1" fill="none" fill-rule="evenodd">
        <g id="Group">
            <path d="M176.788074,30.6940665 C217.132165,-9.6500243 282.540496,-9.65238927 322.886951,30.6940665 L468.980959,176.788074 C509.32505,217.132165 509.327415,282.540496 468.980959,322.886951 L322.886951,468.980959 C282.54286,509.32505 217.13453,509.327415 176.788074,468.980959 L30.6940665,322.886951 C-9.6500243,282.54286 -9.65238927,217.13453 30.6940665,176.788074 L176.788074,30.6940665 L176.788074,30.6940665 Z" id="Rectangle-1" fill="#95DC42"></path>
            <path d="M297.498864,107.250033 L316.030758,302.205554 L316.030758,302.205554 L329.117874,159.925111 C328.96565,159.819634 328.820534,159.698934 328.68458,159.562981 L321.408696,152.287096 C320.197083,151.075483 320.18924,149.118912 321.408696,147.899456 L328.68458,140.623572 C329.316237,139.991916 330.150365,139.687432 330.976965,139.713456 L331.095041,138.429752 L331.214648,139.730093 C331.891454,139.803688 332.549545,140.100897 333.07222,140.623572 L340.348105,147.899456 C341.559718,149.11107 341.56756,151.06764 340.348105,152.287096 L333.07222,159.562981 C333.062089,159.573111 333.051906,159.583158 333.041672,159.593121 L351.239669,357.438017 L351.061633,357.438017 C351.176914,357.763329 351.239669,358.113645 351.239669,358.47874 L351.239669,389.455145 C351.239669,391.171004 349.85231,392.561983 348.140227,392.561983 L151.859773,392.561983 C150.147998,392.561983 148.760331,391.171963 148.760331,389.455145 L148.760331,358.47874 C148.760331,358.113707 148.82312,357.763377 148.938469,357.438017 L148.760331,357.438017 L166.927791,159.925111 C166.775567,159.819634 166.630452,159.698934 166.494498,159.562981 L159.218613,152.287096 C158.007,151.075483 157.999158,149.118912 159.218613,147.899456 L166.494498,140.623572 C167.126154,139.991916 167.960282,139.687432 168.786882,139.713456 L168.904959,138.429752 L169.024566,139.730093 C169.701372,139.803688 170.359462,140.100897 170.882137,140.623572 L178.158022,147.899456 C179.369635,149.11107 179.377477,151.06764 178.158022,152.287096 L170.882137,159.562981 C170.872006,159.573111 170.861823,159.583158 170.851589,159.593121 L183.969242,302.205554 L202.546569,106.772077 L195.375638,99.6011454 C194.164025,98.3895323 194.156182,96.4329614 195.375638,95.2135061 L202.651523,87.9376213 C203.149682,87.4394616 203.773776,87.1447965 204.420791,87.0552615 L204.545455,85.7438017 L204.667821,87.0310995 C205.517844,86.9821666 206.384669,87.2831281 207.039162,87.9376213 L214.315047,95.2135061 C215.52666,96.4251192 215.534502,98.38169 214.315047,99.6011454 L207.039162,106.87703 C206.898618,107.017574 206.748051,107.14192 206.589773,107.250033 L226.860117,320.494051 L245.118049,302.236119 L240.830183,297.948253 C239.61857,296.73664 239.610728,294.780069 240.830183,293.560614 L248.106068,286.284729 C249.317681,285.073116 251.274252,285.065273 252.493707,286.284729 L259.769592,293.560614 C260.981205,294.772227 260.989048,296.728797 259.769592,297.948253 L255.015345,302.7025 L273.110978,320.798132 L293.45566,106.772077 L286.284729,99.6011454 C285.073116,98.3895323 285.065273,96.4329614 286.284729,95.2135061 L293.560614,87.9376213 C294.058773,87.4394616 294.682866,87.1447965 295.329882,87.0552615 L295.454545,85.7438017 L295.576912,87.0310995 C296.426935,86.9821666 297.29376,87.2831281 297.948253,87.9376213 L305.224138,95.2135061 C306.435751,96.4251192 306.443593,98.38169 305.224138,99.6011454 L297.948253,106.87703 C297.807709,107.017574 297.657142,107.14192 297.498864,107.250033 L297.498864,107.250033 Z" id="Combined-Shape" fill="#FFFFFF"></path>
        </g>
    </g>
</svg>